Complete name                    : Shadow.People.2012.576p.BDRiP.AC3-5.1.x264-AXED.mkv
Format                           : Matroska
File size                        : 2.00 GiB
Duration                         : 1h 28mn
Overall bit rate                 : 3 218 Kbps
Encoded date                     : UTC 2013-03-14 04:45:21
Writing application              : mkvmerge v4.9.1 ('Ich will') built on Jul 11 2011 23:53:15
Writing library                  : libebml v1.2.1 + libmatroska v1.1.1

Video
ID                               : 1
Format                           : AVC
Format/Info                      : Advanced Video Codec
Format profile                   : High@L4.1
Format settings, CABAC           : Yes
Format settings, ReFrames        : 3 frames
Format settings, GOP             : M=4, N=24
Codec ID                         : V_MPEG4/ISO/AVC
Duration                         : 1h 28mn
Bit rate mode                    : Variable
Bit rate                         : 2 575 Kbps
Maximum bit rate                 : 40.0 Mbps
Width                            : 1 024 pixels
Height                           : 432 pixels
Display aspect ratio             : 2.35:1
Frame rate                       : 23.976 fps
Color space                      : YUV
Chroma subsampling               : 4:2:0
Bit depth                        : 8 bits
Scan type                        : Progressive
Bits/(Pixel*Frame)               : 0.243
Stream size                      : 1.56 GiB (78%)
Writing library                  : x264 core 116 r2074 2641b9e

Audio
ID                               : 2
Format                           : AC-3
Format/Info                      : Audio Coding 3
Mode extension                   : CM (complete main)
Codec ID                         : A_AC3
Duration                         : 1h 28mn
Bit rate mode                    : Constant
Bit rate                         : 640 Kbps
Channel(s)                       : 6 channels
Channel positions                : Front: L C R, Side: L R, LFE
Sampling rate                    : 48.0 KHz
Bit depth                        : 16 bits
Compression mode                 : Lossy
Stream size                      : 407 MiB (20%)

SOURCE:
RA RETAIL BLU RAY DISC

Cast: Dallas Roberts, Alison Eastwood, Anne Dudek 

Plot: A radio talk show host unravels a conspiracy about encounters with 
mysterious beings known as The Shadow People and their role in the unexplained 
deaths of several hundred victims in the 1980s. 

Screens: 
 
http://imageshack.us/a/img801/7818/18879632.png
 
http://imageshack.us/a/img6/4995/38939301.png
 
http://imageshack.us/a/img507/8489/97099606.png
 
http://imageshack.us/a/img163/9619/24987660.png
 
http://imageshack.us/a/img20/9691/63862675.png